<svg id="visual" viewBox="0 0 960 540" width="960" height="540" xmlns="http://www.w3.org/2000/svg" xmlns:xlink="http://www.w3.org/1999/xlink" version="1.1"><rect x="0" y="0" width="960" height="540" fill="#05302e"></rect><path d="M0 291L53 291L53 293L107 293L107 262L160 262L160 276L213 276L213 236L267 236L267 229L320 229L320 295L373 295L373 234L427 234L427 297L480 297L480 298L533 298L533 262L587 262L587 258L640 258L640 249L693 249L693 253L747 253L747 299L800 299L800 255L853 255L853 234L907 234L907 291L960 291L960 271L960 541L960 541L907 541L907 541L853 541L853 541L800 541L800 541L747 541L747 541L693 541L693 541L640 541L640 541L587 541L587 541L533 541L533 541L480 541L480 541L427 541L427 541L373 541L373 541L320 541L320 541L267 541L267 541L213 541L213 541L160 541L160 541L107 541L107 541L53 541L53 541L0 541Z" fill="#008f4e"></path><path d="M0 371L53 371L53 371L107 371L107 333L160 333L160 395L213 395L213 374L267 374L267 365L320 365L320 316L373 316L373 412L427 412L427 413L480 413L480 380L533 380L533 379L587 379L587 378L640 378L640 363L693 363L693 330L747 330L747 322L800 322L800 334L853 334L853 416L907 416L907 364L960 364L960 376L960 541L960 541L907 541L907 541L853 541L853 541L800 541L800 541L747 541L747 541L693 541L693 541L640 541L640 541L587 541L587 541L533 541L533 541L480 541L480 541L427 541L427 541L373 541L373 541L320 541L320 541L267 541L267 541L213 541L213 541L160 541L160 541L107 541L107 541L53 541L53 541L0 541Z" fill="#00c745"></path><path d="M0 427L53 427L53 471L107 471L107 480L160 480L160 469L213 469L213 446L267 446L267 416L320 416L320 419L373 419L373 399L427 399L427 468L480 468L480 423L533 423L533 401L587 401L587 399L640 399L640 425L693 425L693 426L747 426L747 425L800 425L800 476L853 476L853 464L907 464L907 398L960 398L960 421L960 541L960 541L907 541L907 541L853 541L853 541L800 541L800 541L747 541L747 541L693 541L693 541L640 541L640 541L587 541L587 541L533 541L533 541L480 541L480 541L427 541L427 541L373 541L373 541L320 541L320 541L267 541L267 541L213 541L213 541L160 541L160 541L107 541L107 541L53 541L53 541L0 541Z" fill="#17ff00"></path></svg>