<svg id="visual" viewBox="0 0 675 900" width="675" height="900" xmlns="http://www.w3.org/2000/svg" xmlns:xlink="http://www.w3.org/1999/xlink" version="1.1"><rect x="0" y="0" width="675" height="900" fill="#05302e"></rect><path d="M292 0L206 0L206 50L290 50L290 100L246 100L246 150L432 150L432 200L431 200L431 250L352 250L352 300L390 300L390 350L350 350L350 400L443 400L443 450L411 450L411 500L432 500L432 550L311 550L311 600L222 600L222 650L304 650L304 700L252 700L252 750L328 750L328 800L329 800L329 850L395 850L395 900L0 900L0 850L0 850L0 800L0 800L0 750L0 750L0 700L0 700L0 650L0 650L0 600L0 600L0 550L0 550L0 500L0 500L0 450L0 450L0 400L0 400L0 350L0 350L0 300L0 300L0 250L0 250L0 200L0 200L0 150L0 150L0 100L0 100L0 50L0 50L0 0L0 0Z" fill="#008f4e"></path><path d="M190 0L320 0L320 50L256 50L256 100L175 100L175 150L254 150L254 200L144 200L144 250L154 250L154 300L162 300L162 350L237 350L237 400L208 400L208 450L154 450L154 500L346 500L346 550L137 550L137 600L351 600L351 650L279 650L279 700L127 700L127 750L134 750L134 800L246 800L246 850L342 850L342 900L0 900L0 850L0 850L0 800L0 800L0 750L0 750L0 700L0 700L0 650L0 650L0 600L0 600L0 550L0 550L0 500L0 500L0 450L0 450L0 400L0 400L0 350L0 350L0 300L0 300L0 250L0 250L0 200L0 200L0 150L0 150L0 100L0 100L0 50L0 50L0 0L0 0Z" fill="#00c745"></path><path d="M154 0L187 0L187 50L179 50L179 100L204 100L204 150L174 150L174 200L111 200L111 250L198 250L198 300L196 300L196 350L52 350L52 400L199 400L199 450L199 450L199 500L172 500L172 550L204 550L204 600L146 600L146 650L200 650L200 700L54 700L54 750L203 750L203 800L147 800L147 850L154 850L154 900L0 900L0 850L0 850L0 800L0 800L0 750L0 750L0 700L0 700L0 650L0 650L0 600L0 600L0 550L0 550L0 500L0 500L0 450L0 450L0 400L0 400L0 350L0 350L0 300L0 300L0 250L0 250L0 200L0 200L0 150L0 150L0 100L0 100L0 50L0 50L0 0L0 0Z" fill="#17ff00"></path></svg>