<svg id="visual" viewBox="0 0 450 900" width="450" height="900" xmlns="http://www.w3.org/2000/svg" xmlns:xlink="http://www.w3.org/1999/xlink" version="1.1"><rect x="0" y="0" width="450" height="900" fill="#05302e"></rect><path d="M195 0L137 0L137 50L194 50L194 100L164 100L164 150L289 150L289 200L288 200L288 250L235 250L235 300L260 300L260 350L234 350L234 400L296 400L296 450L274 450L274 500L288 500L288 550L208 550L208 600L148 600L148 650L203 650L203 700L168 700L168 750L219 750L219 800L220 800L220 850L263 850L263 900L0 900L0 850L0 850L0 800L0 800L0 750L0 750L0 700L0 700L0 650L0 650L0 600L0 600L0 550L0 550L0 500L0 500L0 450L0 450L0 400L0 400L0 350L0 350L0 300L0 300L0 250L0 250L0 200L0 200L0 150L0 150L0 100L0 100L0 50L0 50L0 0L0 0Z" fill="#008f4e"></path><path d="M127 0L214 0L214 50L171 50L171 100L117 100L117 150L170 150L170 200L96 200L96 250L103 250L103 300L109 300L109 350L159 350L159 400L139 400L139 450L103 450L103 500L231 500L231 550L92 550L92 600L234 600L234 650L186 650L186 700L85 700L85 750L90 750L90 800L165 800L165 850L228 850L228 900L0 900L0 850L0 850L0 800L0 800L0 750L0 750L0 700L0 700L0 650L0 650L0 600L0 600L0 550L0 550L0 500L0 500L0 450L0 450L0 400L0 400L0 350L0 350L0 300L0 300L0 250L0 250L0 200L0 200L0 150L0 150L0 100L0 100L0 50L0 50L0 0L0 0Z" fill="#00c745"></path><path d="M103 0L125 0L125 50L119 50L119 100L137 100L137 150L116 150L116 200L74 200L74 250L132 250L132 300L131 300L131 350L35 350L35 400L133 400L133 450L133 450L133 500L115 500L115 550L137 550L137 600L97 600L97 650L133 650L133 700L36 700L36 750L136 750L136 800L98 800L98 850L103 850L103 900L0 900L0 850L0 850L0 800L0 800L0 750L0 750L0 700L0 700L0 650L0 650L0 600L0 600L0 550L0 550L0 500L0 500L0 450L0 450L0 400L0 400L0 350L0 350L0 300L0 300L0 250L0 250L0 200L0 200L0 150L0 150L0 100L0 100L0 50L0 50L0 0L0 0Z" fill="#17ff00"></path></svg>