<svg id="visual" viewBox="0 0 675 900" width="675" height="900" xmlns="http://www.w3.org/2000/svg" xmlns:xlink="http://www.w3.org/1999/xlink" version="1.1"><rect x="0" y="0" width="675" height="900" fill="#05302e"></rect><path d="M219 0L154 0L154 50L218 50L218 100L184 100L184 150L325 150L325 200L323 200L323 250L264 250L264 300L292 300L292 350L263 350L263 400L333 400L333 450L308 450L308 500L324 500L324 550L234 550L234 600L167 600L167 650L228 650L228 700L189 700L189 750L247 750L247 800L247 800L247 850L296 850L296 900L0 900L0 850L0 850L0 800L0 800L0 750L0 750L0 700L0 700L0 650L0 650L0 600L0 600L0 550L0 550L0 500L0 500L0 450L0 450L0 400L0 400L0 350L0 350L0 300L0 300L0 250L0 250L0 200L0 200L0 150L0 150L0 100L0 100L0 50L0 50L0 0L0 0Z" fill="#008f4e"></path><path d="M143 0L240 0L240 50L192 50L192 100L131 100L131 150L191 150L191 200L108 200L108 250L116 250L116 300L122 300L122 350L178 350L178 400L157 400L157 450L116 450L116 500L260 500L260 550L103 550L103 600L264 600L264 650L210 650L210 700L95 700L95 750L101 750L101 800L185 800L185 850L257 850L257 900L0 900L0 850L0 850L0 800L0 800L0 750L0 750L0 700L0 700L0 650L0 650L0 600L0 600L0 550L0 550L0 500L0 500L0 450L0 450L0 400L0 400L0 350L0 350L0 300L0 300L0 250L0 250L0 200L0 200L0 150L0 150L0 100L0 100L0 50L0 50L0 0L0 0Z" fill="#00c745"></path><path d="M116 0L141 0L141 50L134 50L134 100L154 100L154 150L131 150L131 200L83 200L83 250L148 250L148 300L147 300L147 350L39 350L39 400L149 400L149 450L149 450L149 500L129 500L129 550L154 550L154 600L109 600L109 650L150 650L150 700L40 700L40 750L153 750L153 800L111 800L111 850L116 850L116 900L0 900L0 850L0 850L0 800L0 800L0 750L0 750L0 700L0 700L0 650L0 650L0 600L0 600L0 550L0 550L0 500L0 500L0 450L0 450L0 400L0 400L0 350L0 350L0 300L0 300L0 250L0 250L0 200L0 200L0 150L0 150L0 100L0 100L0 50L0 50L0 0L0 0Z" fill="#17ff00"></path></svg>