<svg id="visual" viewBox="0 0 675 900" width="675" height="900" xmlns="http://www.w3.org/2000/svg" xmlns:xlink="http://www.w3.org/1999/xlink" version="1.1"><rect x="0" y="0" width="675" height="900" fill="#05302e"></rect><path d="M458 900L523 900L523 850L459 850L459 800L493 800L493 750L352 750L352 700L354 700L354 650L413 650L413 600L385 600L385 550L414 550L414 500L344 500L344 450L369 450L369 400L353 400L353 350L443 350L443 300L510 300L510 250L449 250L449 200L488 200L488 150L430 150L430 100L430 100L430 50L381 50L381 0L675 0L675 50L675 50L675 100L675 100L675 150L675 150L675 200L675 200L675 250L675 250L675 300L675 300L675 350L675 350L675 400L675 400L675 450L675 450L675 500L675 500L675 550L675 550L675 600L675 600L675 650L675 650L675 700L675 700L675 750L675 750L675 800L675 800L675 850L675 850L675 900L675 900Z" fill="#008f4e"></path><path d="M534 900L437 900L437 850L485 850L485 800L546 800L546 750L486 750L486 700L569 700L569 650L561 650L561 600L555 600L555 550L499 550L499 500L520 500L520 450L561 450L561 400L417 400L417 350L574 350L574 300L413 300L413 250L467 250L467 200L582 200L582 150L576 150L576 100L492 100L492 50L420 50L420 0L675 0L675 50L675 50L675 100L675 100L675 150L675 150L675 200L675 200L675 250L675 250L675 300L675 300L675 350L675 350L675 400L675 400L675 450L675 450L675 500L675 500L675 550L675 550L675 600L675 600L675 650L675 650L675 700L675 700L675 750L675 750L675 800L675 800L675 850L675 850L675 900L675 900Z" fill="#00c745"></path><path d="M561 900L536 900L536 850L543 850L543 800L523 800L523 750L546 750L546 700L594 700L594 650L529 650L529 600L530 600L530 550L638 550L638 500L528 500L528 450L528 450L528 400L548 400L548 350L523 350L523 300L568 300L568 250L527 250L527 200L637 200L637 150L524 150L524 100L566 100L566 50L561 50L561 0L675 0L675 50L675 50L675 100L675 100L675 150L675 150L675 200L675 200L675 250L675 250L675 300L675 300L675 350L675 350L675 400L675 400L675 450L675 450L675 500L675 500L675 550L675 550L675 600L675 600L675 650L675 650L675 700L675 700L675 750L675 750L675 800L675 800L675 850L675 850L675 900L675 900Z" fill="#17ff00"></path></svg>