<svg id="visual" viewBox="0 0 675 900" width="675" height="900" xmlns="http://www.w3.org/2000/svg" xmlns:xlink="http://www.w3.org/1999/xlink" version="1.1"><rect x="0" y="0" width="675" height="900" fill="#05302e"></rect><path d="M385 900L471 900L471 850L387 850L387 800L431 800L431 750L245 750L245 700L246 700L246 650L325 650L325 600L287 600L287 550L327 550L327 500L234 500L234 450L266 450L266 400L245 400L245 350L366 350L366 300L455 300L455 250L373 250L373 200L425 200L425 150L349 150L349 100L348 100L348 50L282 50L282 0L675 0L675 50L675 50L675 100L675 100L675 150L675 150L675 200L675 200L675 250L675 250L675 300L675 300L675 350L675 350L675 400L675 400L675 450L675 450L675 500L675 500L675 550L675 550L675 600L675 600L675 650L675 650L675 700L675 700L675 750L675 750L675 800L675 800L675 850L675 850L675 900L675 900Z" fill="#008f4e"></path><path d="M487 900L357 900L357 850L421 850L421 800L502 800L502 750L423 750L423 700L533 700L533 650L523 650L523 600L515 600L515 550L440 550L440 500L469 500L469 450L523 450L523 400L331 400L331 350L540 350L540 300L326 300L326 250L398 250L398 200L550 200L550 150L543 150L543 100L431 100L431 50L335 50L335 0L675 0L675 50L675 50L675 100L675 100L675 150L675 150L675 200L675 200L675 250L675 250L675 300L675 300L675 350L675 350L675 400L675 400L675 450L675 450L675 500L675 500L675 550L675 550L675 600L675 600L675 650L675 650L675 700L675 700L675 750L675 750L675 800L675 800L675 850L675 850L675 900L675 900Z" fill="#00c745"></path><path d="M523 900L490 900L490 850L498 850L498 800L473 800L473 750L503 750L503 700L566 700L566 650L479 650L479 600L481 600L481 550L625 550L625 500L478 500L478 450L478 450L478 400L505 400L505 350L473 350L473 300L531 300L531 250L477 250L477 200L623 200L623 150L474 150L474 100L530 100L530 50L523 50L523 0L675 0L675 50L675 50L675 100L675 100L675 150L675 150L675 200L675 200L675 250L675 250L675 300L675 300L675 350L675 350L675 400L675 400L675 450L675 450L675 500L675 500L675 550L675 550L675 600L675 600L675 650L675 650L675 700L675 700L675 750L675 750L675 800L675 800L675 850L675 850L675 900L675 900Z" fill="#17ff00"></path></svg>